#!OML:ASF F:\VICON\USERDATA\INSTALL\rory3\rory3.ASF
:FULLY-SPECIFIED
:DEGREES
138
root -1.54756 17.8911 -32.4273 4.68764 -1.01879 -6.67656
lowerback 5.8685 2.75225 2.48355
upperback -0.115113 4.00175 4.45825
thorax -3.56187 1.98755 2.86483
lowerneck -14.8625 -6.04094 -15.2161
upperneck 24.398 -6.73554 8.31205
head 11.1977 -3.5121 4.6326
rclavicle -9.83984e-015 -2.14687e-014
rhumerus -35.3436 -17.0848 -73.0704
rradius 22.8603
rwrist -7.90838
rhand -11.3586 16.8294
rfingers 7.12502
rthumb 14.675 -12.6313
lclavicle -9.83984e-015 -2.14687e-014
lhumerus -42.6211 21.1026 72.5846
lradius 20.6464
lwrist -16.9587
lhand 1.79769 32.107
lfingers 7.12502
lthumb 27.3111 60.1488
rfemur 17.0926 1.93124 31.009
rtibia 4.45278e-014
rfoot -15.6848 -9.43054
rtoes 19.5247
lfemur -39.0778 -4.22676 -6.99916
ltibia 24.4143
lfoot -17.9892 5.51064
ltoes -8.05889
139
root -1.51574 17.8856 -32.3334 4.96204 -2.45 -6.88859
lowerback 6.02817 3.26676 2.6651
upperback -0.281326 4.71714 4.42238
thorax -3.8317 2.33713 2.64785
lowerneck -14.6413 -6.00383 -15.3276
upperneck 24.4037 -6.72405 8.4402
head 11.1637 -3.50774 4.70528
rclavicle -1.68967e-014 -5.1684e-014
rhumerus -35.568 -16.5247 -73.3
rradius 23.0692
rwrist -8.30311
rhand -11.3091 16.7298
rfingers 7.12502
rthumb 14.7227 -12.7274
lclavicle -1.68967e-014 -5.1684e-014
lhumerus -42.9001 20.8079 72.6328
lradius 20.9901
lwrist -16.5535
lhand 1.94845 31.9902
lfingers 7.12502
lthumb 27.4553 60.0092
rfemur 17.2201 3.42406 31.0277
rtibia -1.59028e-014
rfoot -15.1734 -9.56743
rtoes 18.4215
lfemur -38.8837 -4.06441 -6.32369
ltibia 24.382
lfoot -18.0279 6.50159
ltoes -7.60713
140
root -1.49911 17.8747 -32.2164 4.82029 -2.29348 -6.6309
lowerback 6.22663 3.27905 2.4065
upperback -0.256778 4.72191 4.35587
thorax -3.93287 2.34327 2.71107
lowerneck -14.594 -6.04593 -15.4948
upperneck 24.2627 -6.7874 8.61291
head 11.1238 -3.53055 4.78595
rclavicle -3.23025e-014 -9.54166e-015
rhumerus -35.6274 -16.1308 -73.5108
rradius 23.2943
rwrist -8.70481
rhand -11.2827 16.6582
rfingers 7.12502
rthumb 14.7481 -12.7971
lclavicle -3.23025e-014 -9.54166e-015
lhumerus -42.8252 20.6547 72.7556
lradius 21.1628
lwrist -16.2199
lhand 1.95683 32.4445
lfingers 7.12502
lthumb 27.4633 60.4622
rfemur 17.8078 3.2416 30.7576
rtibia -1.59028e-014
rfoot -14.9822 -9.69428
rtoes 17.02
lfemur -38.6184 -4.44483 -6.53997
ltibia 24.394
lfoot -17.6862 6.28519
ltoes -7.70271
141
root -1.46836 17.8669 -32.0922 4.89537 -2.21607 -6.31969
lowerback 5.85412 3.30595 2.2489
upperback -0.133094 4.71632 4.24554
thorax -3.59742 2.34483 2.71003
lowerneck -14.3499 -6.09518 -15.6114
upperneck 23.9051 -6.86965 8.69059
head 10.962 -3.56816 4.81599
rclavicle 1.19271e-014 -9.54166e-015
rhumerus -35.5072 -15.4986 -73.92
rradius 23.6557
rwrist -9.13415
rhand -11.4477 16.6238
rfingers 7.12502
rthumb 14.5891 -12.8431
lclavicle 1.19271e-014 -9.54166e-015
lhumerus -42.6122 20.7371 72.8296
lradius 21.3025
lwrist -16.1323
lhand 2.1018 32.5681
lfingers 7.12502
lthumb 27.6019 60.5638
rfemur 18.1801 3.19302 30.3277
rtibia -1.27222e-014
rfoot -14.944 -9.84966
rtoes 15.5728
lfemur -38.5014 -4.75769 -6.87858
ltibia 24.4133
lfoot -17.3016 5.7266
ltoes -6.35765
142
root -1.44027 17.8622 -31.9689 4.9709 -2.78259 -6.32525
lowerback 5.62881 3.57111 2.3113
upperback -0.0684597 5.05597 4.16396
thorax -3.40244 2.51303 2.57678
lowerneck -14.0505 -6.1454 -15.5467
upperneck 23.6826 -6.99697 8.6965
head 10.8361 -3.62215 4.78666
rclavicle 6.32135e-014 9.54166e-015
rhumerus -35.4134 -15.1263 -74.2862
rradius 23.677
rwrist -8.97787
rhand -12.0114 17.2117
rfingers 7.12502
rthumb 14.046 -12.2937
lclavicle 6.32135e-014 9.54166e-015
lhumerus -42.6525 20.4491 72.9066
lradius 21.7454
lwrist -15.8541
lhand 2.28225 32.5789
lfingers 7.12502
lthumb 27.7745 60.5468
rfemur 18.5751 3.78729 30.2203
rtibia -5.40694e-014
rfoot -14.958 -9.95365
rtoes 15.7762
lfemur -38.1474 -4.84478 -6.71498
ltibia 24.4018
lfoot -17.0217 5.57981
ltoes -3.9753
143
root -1.40669 17.8608 -31.8479 5.12899 -3.65311 -6.33127
lowerback 5.54025 3.93241 2.3651
upperback -0.0396143 5.53117 4.06283
thorax -3.32252 2.74791 2.40895
lowerneck -14.1398 -6.17884 -15.4168
upperneck 23.6547 -7.05706 8.68024
head 10.8449 -3.63686 4.74765
rclavicle -6.05299e-014 -1.19271e-014
rhumerus -35.1743 -14.9789 -74.5109
rradius 23.4034
rwrist -8.79986
rhand -12.4839 17.8321
rfingers 7.12502
rthumb 13.5906 -11.7043
lclavicle -6.05299e-014 -1.19271e-014
lhumerus -42.6203 20.332 72.9013
lradius 22.0093
lwrist -15.6723
lhand 2.12777 32.0522
lfingers 7.12502
lthumb 27.6268 60.0438
rfemur 18.8817 4.70082 30.0554
rtibia 4.45278e-014
rfoot -14.492 -9.98608
rtoes 15.5376
lfemur -37.7714 -4.77229 -6.58068
ltibia 24.4135
lfoot -16.5334 5.93726
ltoes -1.72708
144
root -1.37533 17.8561 -31.7361 5.40509 -4.51506 -6.38913
lowerback 5.53451 4.26705 2.42108
upperback -0.105988 5.98149 3.99309
thorax -3.38778 2.9696 2.26575
lowerneck -14.2228 -6.14554 -15.4269
upperneck 23.6581 -7.01034 8.74472
head 10.8582 -3.60731 4.77975
rclavicle -4.83047e-014 -1.74931e-014
rhumerus -35.0819 -14.6848 -74.7115
rradius 23.4637
rwrist -8.96433
rhand -12.4382 18.1217
rfingers 7.12502
rthumb 13.6347 -11.4117
lclavicle -4.83047e-014 -1.74931e-014
lhumerus -42.5417 20.251 72.967
lradius 22.2255
lwrist -15.359
lhand 2.08292 31.7713
lfingers 7.12502
lthumb 27.5839 59.7698
rfemur 18.9879 5.62905 29.933
rtibia -3.18055e-015
rfoot -13.5575 -9.91854
rtoes 15.7086
lfemur -37.532 -4.5918 -6.4234
ltibia 24.4174
lfoot -15.8735 6.36181
ltoes -0.433538
145
root -1.34781 17.8571 -31.6003 5.5492 -4.61148 -6.47056
lowerback 5.43928 4.33183 2.62364
upperback -0.211571 6.07889 3.92791
thorax -3.41824 3.01334 2.08241
lowerneck -14.0864 -6.07933 -15.4853
upperneck 23.6656 -6.95377 8.85945
head 10.8325 -3.57745 4.84394
rclavicle -1.04362e-014 3.97569e-015
rhumerus -35.1565 -14.6189 -74.8253
rradius 23.5585
rwrist -8.8803
rhand -12.0619 18.8081
rfingers 7.12502
rthumb 13.9974 -10.7006
lclavicle -1.04362e-014 3.97569e-015
lhumerus -42.6167 19.9181 73.0482
lradius 22.5754
lwrist -14.9282
lhand 2.20702 32.199
lfingers 7.12502
lthumb 27.7026 60.1785
rfemur 19.2391 5.78623 29.905
rtibia -2.22639e-014
rfoot -13.2476 -9.84271
rtoes 15.6618
lfemur -37.2369 -4.74821 -6.37489
ltibia 24.4295
lfoot -14.998 6.4481
ltoes -0.858348
146
root -1.31759 17.8644 -31.4593 5.56386 -5.09339 -6.75604
lowerback 5.46482 4.48371 2.98166
upperback -0.232058 6.3062 3.9392
thorax -3.42182 3.11927 1.87635
lowerneck -14.0843 -6.05043 -15.4797
upperneck 23.6946 -6.90376 8.81444
head 10.834 -3.55973 4.83444
rclavicle 4.68138e-014 0
rhumerus -35.0896 -14.5002 -74.9612
rradius 23.5269
rwrist -8.74817
rhand -12.0817 18.0672
rfingers 7.12502
rthumb 13.9783 -11.4428
lclavicle 4.68138e-014 0
lhumerus -42.7766 19.7796 72.9932
lradius 22.8368
lwrist -14.5619
lhand 2.14601 32.1065
lfingers 7.12502
lthumb 27.6442 60.0954
rfemur 19.6698 6.31957 30.0474
rtibia -9.85972e-014
rfoot -13.7409 -9.84185
rtoes 17.631
lfemur -36.6159 -4.87684 -6.05491
ltibia 24.4993
lfoot -13.975 6.91461
ltoes -1.02077
147
root -1.2883 17.8625 -31.3143 5.54241 -5.28734 -6.67624
lowerback 5.29552 4.5213 2.94793
upperback -0.11401 6.33666 3.91047
thorax -3.2051 3.13764 1.88261
lowerneck -14.281 -6.08733 -15.5194
upperneck 23.6682 -6.89786 8.75927
head 10.8621 -3.56156 4.8173
rclavicle 1.82882e-014 0
rhumerus -34.834 -14.1113 -75.2189
rradius 23.6232
rwrist -8.8999
rhand -12.1754 18.2213
rfingers 7.12502
rthumb 13.888 -11.295
lclavicle 1.82882e-014 0
lhumerus -42.7757 19.8462 73.0146
lradius 23.1241
lwrist -14.1455
lhand 2.10724 32.0413
lfingers 7.12502
lthumb 27.6071 60.0361
rfemur 20.191 6.54208 29.8304
rtibia -2.22639e-014
rfoot -13.7295 -9.84288
rtoes 19.5995
lfemur -36.0662 -5.01387 -6.29938
ltibia 24.6595
lfoot -13.0394 6.99813
ltoes -0.686439
148
root -1.25994 17.8561 -31.1711 5.65781 -5.25591 -6.47877
lowerback 5.03448 4.51352 2.75729
upperback -0.075299 6.2975 3.86852
thorax -3.03356 3.12349 1.97064
lowerneck -14.4526 -6.10919 -15.6229
upperneck 23.6834 -6.88128 8.7849
head 10.9048 -3.55663 4.84451
rclavicle -1.81888e-014 -1.66979e-014
rhumerus -34.6043 -13.8028 -75.3689
rradius 23.6437
rwrist -9.00345
rhand -12.2461 18.4323
rfingers 7.12502
rthumb 13.8199 -11.0886
lclavicle -1.81888e-014 -1.66979e-014
lhumerus -42.7484 19.8017 73.2175
lradius 23.6165
lwrist -13.7292
lhand 2.12882 32.7568
lfingers 7.12502
lthumb 27.6278 60.7483
rfemur 20.5699 6.55772 29.5012
rtibia -1.90833e-014
rfoot -11.8841 -9.7224
rtoes 13.4684
lfemur -35.8249 -5.00937 -6.81164
ltibia 24.9474
lfoot -11.9506 6.95086
ltoes -1.48552
